<svg width="372" height="217" viewBox="0 0 372 217" fill="none" xmlns="http://www.w3.org/2000/svg">
<path d="M0.5 215.5V175.75M0.5 215.5C65.6667 209.823 201.2 192.222 222 167.234M0.5 215.5H93.125M0.5 37.5V1.5C10.9172 12.0474 23.7948 24.2991 38.6298 37.5M0.5 37.5C4.75323 41.3333 18.3337 46.7 38.6298 37.5M0.5 37.5V68M0.5 37.5C57.8333 96.8333 197.1 215.5 295.5 215.5M38.6298 37.5C46.2584 44.2882 54.4046 51.3275 63 58.515M0.5 68C17.5 71.8433 53.8 75.327 63 58.515M0.5 68V102.5M0.5 68C52.6667 121.5 174.9 225.9 246.5 215.5M63 58.515C72.935 66.8228 83.4702 75.3287 94.5 83.8742M0.5 102.5C21.6667 104.744 70.1 104.162 94.5 83.8742M0.5 102.5V136M0.5 102.5C38.6667 140.167 129.15 215.5 185.75 215.5M94.5 83.8742C104.767 91.8284 115.462 99.817 126.5 107.712M0.5 136C36.6667 134.517 112.5 126.782 126.5 107.712M0.5 136V175.75M0.5 136C19.2917 163.418 73.3875 217.704 139.438 215.5M126.5 107.712C139.987 117.359 153.988 126.866 168.345 136M0.5 175.75C52.0634 171.929 157.821 158.63 168.345 136M0.5 175.75C9.25 189 40.025 215.5 93.125 215.5M168.345 136C185.795 147.102 203.773 157.653 222 167.234M222 167.234C239.19 176.271 256.601 184.445 274 191.406M185.75 215.5C209.333 215.526 260 210.743 274 191.406M185.75 215.5H139.438M185.75 215.5H246.5M274 191.406C306.906 204.57 339.766 213.393 371 215.5H295.5M93.125 215.5H139.438M246.5 215.5H295.5" stroke="#0000aa22"/>
</svg>
